<svg width="551" height="433" viewBox="0 0 551 433" fill="none" xmlns="http://www.w3.org/2000/svg">
<g clip-path="url(#clip0_75_1359)">
<path d="M488.009 193.877C488.003 194.05 487.932 194.214 487.809 194.335C487.68 194.466 487.504 194.54 487.32 194.541C487.136 194.543 486.96 194.471 486.829 194.341L484.655 192.175L447.699 155.395L344.044 52.2189C343.452 51.6339 342.671 51.28 341.841 51.2215C341.011 51.1631 340.187 51.4038 339.52 51.9001L181.392 170.479L179.966 171.544C179.911 171.586 179.85 171.619 179.785 171.643C179.671 171.684 179.548 171.694 179.428 171.672C179.257 171.642 179.103 171.549 178.995 171.412C178.94 171.339 178.9 171.257 178.876 171.169C178.853 171.081 178.847 170.989 178.86 170.899C178.872 170.809 178.902 170.722 178.948 170.643C178.994 170.565 179.055 170.496 179.127 170.441L179.326 170.288L338.689 50.7903C339.624 50.0968 340.777 49.7603 341.939 49.8414C343.101 49.9225 344.195 50.4159 345.026 51.2327L448.713 154.438L487.804 193.355C487.872 193.423 487.925 193.505 487.961 193.594C487.996 193.684 488.013 193.78 488.009 193.877Z" fill="#2B2B2B"/>
<path d="M402.515 208.254L401.056 203.115L396.034 185.37L385.212 147.161L373.116 104.452L351.302 27.4172C350.873 25.9147 349.866 24.6434 348.501 23.8818C347.137 23.1202 345.526 22.9304 344.022 23.3538L182.539 69.0845C181.036 69.5129 179.764 70.5199 179.002 71.8844C178.241 73.249 178.051 74.86 178.475 76.3641L209.404 185.575L209.93 187.441L249.115 208.717L260.13 214.697L261.916 215.667L308.55 240.99L310.466 240.447L342.91 231.261L391.85 217.402L398.444 215.533C399.948 215.105 401.22 214.099 401.983 212.734C402.746 211.37 402.937 209.759 402.515 208.254Z" fill="#DDDDDD"/>
<path d="M342.907 114.849C342.277 112.638 340.796 110.767 338.788 109.646C336.781 108.525 334.411 108.246 332.198 108.87L268.303 126.972L237.448 135.709C236.352 136.018 235.328 136.54 234.433 137.246C233.539 137.951 232.793 138.826 232.237 139.82C231.681 140.814 231.326 141.908 231.193 143.039C231.06 144.17 231.151 145.317 231.462 146.413C231.772 147.509 232.295 148.533 233.002 149.426C233.708 150.32 234.583 151.065 235.578 151.62C236.573 152.175 237.667 152.529 238.798 152.661C239.93 152.793 241.076 152.7 242.172 152.389L266.978 145.365L336.928 125.558C339.139 124.928 341.01 123.447 342.131 121.439C343.252 119.432 343.531 117.062 342.907 114.849Z" fill="white"/>
<path d="M351.693 145.881C351.063 143.67 349.582 141.799 347.575 140.678C345.567 139.557 343.197 139.278 340.985 139.902L330.16 142.968L265.839 161.185L246.235 166.734C244.024 167.362 242.153 168.842 241.033 170.849C239.913 172.856 239.635 175.225 240.261 177.437C240.887 179.648 242.365 181.521 244.371 182.643C246.377 183.765 248.746 184.045 250.958 183.421L264.515 179.579L345.715 156.583C345.899 156.534 346.077 156.47 346.256 156.406C348.328 155.669 350.043 154.172 351.053 152.218C352.063 150.263 352.291 147.998 351.693 145.881Z" fill="white"/>
<path d="M360.574 177.24C359.946 175.03 358.466 173.159 356.46 172.038C354.453 170.917 352.084 170.638 349.873 171.262L319.515 179.861L296.013 186.519L263.349 195.765L255.116 198.1C253.213 198.642 251.552 199.818 250.407 201.432C249.263 203.046 248.704 205.003 248.823 206.978C248.861 207.566 248.959 208.149 249.115 208.717L260.13 214.697L262.025 214.159L262.039 214.16L321.313 197.373L354.595 187.949C356.807 187.321 358.679 185.84 359.801 183.832C360.922 181.824 361.2 179.453 360.574 177.24Z" fill="white"/>
<path d="M302.257 82.0365C301.627 79.8254 300.146 77.9543 298.139 76.8334C296.132 75.7126 293.762 75.4336 291.549 76.0575L254.853 86.4458C252.642 87.0737 250.771 88.5538 249.651 90.5606C248.53 92.5675 248.253 94.9371 248.878 97.1486C249.504 99.3601 250.983 101.233 252.988 102.355C254.994 103.477 257.363 103.757 259.575 103.133L271.188 99.8459L278.875 97.6667L296.279 92.7383C298.489 92.1099 300.36 90.6302 301.481 88.6238C302.602 86.6175 302.881 84.2484 302.257 82.0365Z" fill="white"/>
<path d="M443.734 109.537L276.336 97.4839C275.348 97.4138 274.359 97.5934 273.459 98.0062C272.56 98.419 271.778 99.0517 271.187 99.8459C270.513 100.745 270.112 101.819 270.033 102.94L261.916 215.667L308.55 240.99L315.121 244.558L325.499 250.193C326.107 250.522 326.778 250.718 327.467 250.768C328.157 250.817 328.849 250.72 329.497 250.481L340.576 246.39L375.248 233.59L407.564 221.655L442.5 208.762L449.19 115.84C449.302 114.281 448.79 112.741 447.767 111.559C446.743 110.378 445.293 109.65 443.734 109.537Z" fill="#2B2B2B"/>
<path d="M403.47 185.906L305.244 178.833C303.011 178.674 300.802 179.385 299.081 180.818C297.361 182.25 296.261 184.294 296.013 186.519C295.994 186.631 295.981 186.744 295.975 186.857C295.813 189.15 296.567 191.413 298.071 193.151C299.575 194.888 301.707 195.958 303.999 196.127L402.225 203.199C404.518 203.364 406.783 202.612 408.521 201.107C410.259 199.602 411.329 197.468 411.494 195.175C411.659 192.882 410.906 190.617 409.402 188.878C407.897 187.14 405.763 186.071 403.47 185.906Z" fill="white"/>
<path d="M406.602 220.536C405.139 219.09 403.206 218.215 401.154 218.071L302.928 210.999C300.635 210.834 298.37 211.587 296.632 213.091C294.894 214.596 293.824 216.73 293.659 219.023C293.494 221.317 294.247 223.582 295.751 225.32C297.256 227.058 299.39 228.128 301.683 228.293L375.249 233.59L407.564 221.655C407.275 221.255 406.954 220.881 406.602 220.536Z" fill="white"/>
<path d="M315.121 244.558L325.499 250.193C326.107 250.522 326.778 250.718 327.467 250.768C328.157 250.817 328.849 250.72 329.498 250.481L340.576 246.39L315.121 244.558Z" fill="white"/>
<path d="M384.155 147.461C383.666 145.752 382.664 144.235 381.285 143.115C379.905 141.995 378.215 141.325 376.443 141.197L338.398 138.458C336.736 138.339 335.077 138.702 333.616 139.502C332.155 140.302 330.956 141.505 330.16 142.968C329.567 144.051 329.215 145.25 329.128 146.482C328.967 148.774 329.72 151.037 331.225 152.775C332.729 154.513 334.86 155.583 337.152 155.751L375.197 158.49C376.588 158.591 377.983 158.354 379.263 157.8C380.543 157.246 381.67 156.392 382.55 155.309C383.429 154.227 384.034 152.948 384.313 151.582C384.593 150.215 384.538 148.802 384.155 147.461Z" fill="white"/>
<path d="M371.894 233.348L337.221 246.149L329.014 249.181C328.551 249.35 328.058 249.42 327.567 249.384C327.076 249.349 326.597 249.21 326.164 248.976L318.476 244.799L315.121 244.558L325.499 250.193C326.107 250.522 326.778 250.718 327.467 250.768C328.157 250.817 328.849 250.72 329.498 250.481L340.576 246.391L375.248 233.59L371.894 233.348ZM371.894 233.348L337.221 246.149L329.014 249.181C328.551 249.35 328.058 249.42 327.567 249.384C327.076 249.349 326.597 249.21 326.164 248.976L318.476 244.799L315.121 244.558L325.499 250.193C326.107 250.522 326.778 250.718 327.467 250.768C328.157 250.817 328.849 250.72 329.498 250.481L340.576 246.391L375.248 233.59L371.894 233.348ZM371.894 233.348L337.221 246.149L329.014 249.181C328.551 249.35 328.058 249.42 327.567 249.384C327.076 249.349 326.597 249.21 326.164 248.976L318.476 244.799L315.121 244.558L325.499 250.193C326.107 250.522 326.778 250.718 327.467 250.768C328.157 250.817 328.849 250.72 329.498 250.481L340.576 246.391L375.248 233.59L371.894 233.348ZM488.009 193.877C487.772 193.605 487.508 193.357 487.221 193.139C486.573 192.649 485.813 192.331 485.009 192.214C484.206 192.096 483.386 192.184 482.625 192.467L406.602 220.536L371.894 233.348L337.221 246.149L329.014 249.181C328.551 249.35 328.058 249.42 327.567 249.384C327.076 249.349 326.597 249.21 326.164 248.976L318.476 244.799L310.466 240.447L262.039 214.16L262.025 214.152L248.823 206.979L209.404 185.575L182.263 170.841C181.987 170.688 181.694 170.567 181.392 170.479C180.726 170.261 180.02 170.196 179.326 170.288C178.216 170.434 177.19 170.957 176.421 171.771C175.652 172.584 175.187 173.638 175.104 174.754L162.596 348.472C162.505 349.756 162.927 351.024 163.769 351.997C164.612 352.97 165.806 353.569 167.089 353.663L471.45 375.578C472.734 375.669 474.001 375.247 474.975 374.404C475.948 373.562 476.547 372.368 476.641 371.084L489.149 197.366C489.242 196.099 488.833 194.845 488.009 193.877ZM475.257 370.984C475.191 371.902 474.763 372.755 474.068 373.357C473.373 373.959 472.467 374.26 471.55 374.194L167.189 352.279C166.272 352.213 165.419 351.785 164.817 351.09C164.215 350.395 163.914 349.489 163.979 348.572L176.487 174.854C176.529 174.276 176.715 173.718 177.029 173.23C177.342 172.742 177.772 172.341 178.281 172.063C178.638 171.868 179.026 171.736 179.428 171.672C179.546 171.656 179.666 171.646 179.785 171.643C179.922 171.633 180.059 171.633 180.195 171.644C180.687 171.68 181.165 171.821 181.598 172.058L209.93 187.442L249.115 208.717L260.13 214.697L261.916 215.667L308.55 240.99L315.121 244.558L325.499 250.193C326.107 250.522 326.778 250.718 327.467 250.768C328.157 250.817 328.849 250.72 329.498 250.481L340.576 246.391L375.248 233.59L407.564 221.655L483.108 193.768C483.652 193.567 484.237 193.506 484.81 193.59C485.384 193.673 485.927 193.899 486.39 194.247C486.444 194.284 486.494 194.325 486.541 194.369C486.594 194.409 486.642 194.454 486.685 194.505C487.06 194.855 487.351 195.285 487.538 195.763C487.725 196.241 487.803 196.755 487.765 197.267L475.257 370.984ZM371.894 233.348L337.221 246.149L329.014 249.181C328.551 249.35 328.058 249.42 327.567 249.384C327.076 249.349 326.597 249.21 326.164 248.976L318.476 244.799L315.121 244.558L325.499 250.193C326.107 250.522 326.778 250.718 327.467 250.768C328.157 250.817 328.849 250.72 329.498 250.481L340.576 246.391L375.248 233.59L371.894 233.348ZM371.894 233.348L337.221 246.149L329.014 249.181C328.551 249.35 328.058 249.42 327.567 249.384C327.076 249.349 326.597 249.21 326.164 248.976L318.476 244.799L315.121 244.558L325.499 250.193C326.107 250.522 326.778 250.718 327.467 250.768C328.157 250.817 328.849 250.72 329.498 250.481L340.576 246.391L375.248 233.59L371.894 233.348ZM260.13 214.697L261.916 215.667L262.025 214.159L260.13 214.697ZM371.894 233.348L337.221 246.149L329.014 249.181C328.551 249.35 328.058 249.42 327.567 249.384C327.076 249.349 326.597 249.21 326.164 248.976L318.476 244.799L315.121 244.558L325.499 250.193C326.107 250.522 326.778 250.718 327.467 250.768C328.157 250.817 328.849 250.72 329.498 250.481L340.576 246.391L375.248 233.59L371.894 233.348Z" fill="#2B2B2B"/>
</g>
<path d="M316.949 360.349C313.33 375.795 298.131 389.14 281.661 385.441C274.248 383.776 267.428 379.095 263.807 372.335C259.603 364.482 261.385 355.396 263.558 347.224C264.737 342.788 266.152 338.371 266.888 333.832C267.65 329.132 267.687 323.933 264.993 319.793C262.567 316.063 258.493 313.987 254.327 312.785C249.755 311.55 245.057 310.837 240.324 310.659C230.542 310.153 220.755 311.54 211.499 314.743C206.903 316.354 202.467 318.386 198.247 320.815C193.753 323.382 189.44 326.254 184.93 328.796C177.4 333.037 168.457 336.58 159.677 334.663C151.147 332.8 145.55 325.521 142.317 317.83C136.347 303.627 137.967 286.73 145.663 273.505C149.355 267.16 154.592 261.314 161.064 257.727C166.71 254.598 174.504 252.546 180.567 255.74C187.333 259.304 188.303 267.746 185.507 274.249C181.937 282.547 173.161 286.727 164.973 289.165C155.659 291.939 145.917 293.128 136.796 296.58C132.325 298.197 128.14 300.516 124.399 303.45C121.133 306.112 118.376 309.342 116.261 312.986C112.032 320.196 110.2 328.751 110.409 337.063C110.657 347.059 113.88 356.747 118.285 365.641C120.587 370.218 123.152 374.659 125.964 378.942C127.137 380.753 130.036 379.039 128.854 377.216C118.391 361.066 109.633 341.471 115.877 322.071C118.414 313.874 123.982 306.954 131.445 302.72C140.134 297.826 150.239 296.269 159.818 293.996C168.926 291.834 178.73 288.746 185.01 281.359C190.162 275.301 192.335 265.882 188.283 258.676C184.375 251.726 176.161 249.922 168.83 251.319C161.138 252.783 154.432 257.352 149.204 263.045C138.328 274.886 133.578 291.743 135.977 307.562C137.227 315.804 140.57 324.131 146.188 330.375C149.177 333.769 153.058 336.257 157.39 337.557C161.695 338.797 166.254 338.734 170.633 337.948C180.582 336.163 188.983 330.258 197.484 325.169C201.809 322.507 206.374 320.256 211.119 318.447C215.741 316.749 220.52 315.513 225.385 314.757C230.216 314.017 235.109 313.768 239.989 314.012C244.746 314.157 249.466 314.895 254.04 316.21C258.101 317.464 261.959 319.801 263.318 324.062C264.792 328.683 263.643 333.702 262.49 338.259C260.213 347.26 256.847 356.378 258.207 365.804C259.396 374.049 264.769 381.016 271.873 385.17C275.444 387.288 279.413 388.646 283.533 389.159C287.652 389.672 291.833 389.328 295.814 388.15C303.962 385.648 310.84 379.905 315.366 372.752C317.611 369.203 319.248 365.304 320.21 361.216C320.704 359.107 317.452 358.241 316.957 360.352L316.949 360.349Z" fill="#205045"/>
<defs>
<clipPath id="clip0_75_1359">
<rect width="527.459" height="342.516" fill="white" transform="translate(24.5981) rotate(4.11831)"/>
</clipPath>
</defs>
</svg>
